<?xml version="1.0" standalone="no"?>
<!DOCTYPE svg PUBLIC "-//W3C//DTD SVG 20010904//EN"
 "http://www.w3.org/TR/2001/REC-SVG-20010904/DTD/svg10.dtd">
<svg version="1.0" xmlns="http://www.w3.org/2000/svg"
 width="406.000000pt" height="406.000000pt" viewBox="0 0 406.000000 406.000000"
 preserveAspectRatio="xMidYMid meet">
<metadata>
Created by potrace 1.14, written by Peter Selinger 2001-2017
</metadata>
<g transform="translate(0.000000,406.000000) scale(0.100000,-0.100000)"
fill="#000000" stroke="none">
<path d="M3385 3223 c-63 -147 -113 -199 -64 -68 12 31 19 59 16 62 -6 5 -22
-29 -52 -115 -13 -37 -25 -54 -40 -57 -11 -2 -101 -13 -199 -25 -99 -12 -191
-23 -205 -26 -19 -4 -39 5 -78 35 -56 42 -243 141 -265 141 -7 -1 -2 -7 12
-15 37 -21 15 -18 -74 10 -43 14 -84 24 -90 22 -6 -2 13 -10 42 -17 33 -7 50
-16 44 -22 -5 -5 -47 -1 -108 12 -78 17 -146 23 -321 27 l-222 5 -16 25 c-11
17 -22 22 -33 18 -29 -12 -72 -15 -72 -5 0 6 -9 10 -19 10 -11 0 -23 5 -26 10
-9 15 -47 12 -71 -4 -12 -8 -26 -11 -33 -6 -15 9 -51 2 -51 -11 0 -5 -7 -6
-15 -3 -10 4 -15 0 -16 -12 0 -18 -1 -17 -9 1 -7 17 -9 16 -10 -10 -1 -16 -4
-24 -7 -17 -8 21 -23 13 -23 -12 0 -19 -14 -32 -67 -64 -87 -52 -158 -126
-219 -227 -56 -95 -144 -227 -282 -425 -56 -80 -143 -207 -194 -283 -89 -134
-93 -138 -123 -134 l-30 6 28 -13 c54 -24 32 -31 -276 -90 -37 -7 -71 -17 -75
-21 -4 -4 7 -5 23 -2 77 14 158 20 152 9 -4 -5 -35 -13 -69 -17 -91 -11 -116
-24 -47 -24 78 -1 179 -13 179 -20 0 -8 -86 -28 -198 -45 -45 -8 -86 -17 -90
-21 -4 -4 13 -5 38 -1 25 3 95 9 155 13 102 6 109 5 96 -10 -7 -10 -22 -17
-32 -17 -21 0 -26 -16 -6 -23 9 -4 9 -7 0 -18 -7 -7 -13 -17 -13 -22 0 -5 9 1
20 14 29 36 24 16 -11 -41 -17 -27 -35 -48 -39 -45 -5 3 -12 0 -16 -6 -4 -7
-3 -9 4 -5 5 3 12 1 14 -6 3 -7 13 2 23 20 11 18 25 32 33 32 15 0 22 15 -87
-175 -45 -77 -81 -143 -81 -148 0 -4 -21 -44 -46 -88 -26 -44 -45 -82 -43 -84
3 -2 30 39 62 91 32 52 63 94 68 94 6 0 2 -15 -9 -32 -10 -18 -36 -61 -57 -96
-20 -35 -35 -65 -32 -68 6 -6 107 124 107 137 0 5 6 9 13 9 6 0 25 19 41 41
15 22 30 38 33 36 5 -6 -86 -189 -140 -280 -22 -37 -37 -70 -35 -73 3 -2 30
37 61 88 53 89 348 522 370 543 24 24 -9 -36 -113 -202 -61 -96 -109 -181
-107 -187 2 -6 13 7 25 30 18 35 123 182 160 224 12 13 13 13 8 -2 -9 -28 1
-21 25 20 12 20 27 42 34 47 6 6 26 31 43 57 61 89 82 105 142 111 30 4 78 11
105 16 28 6 124 24 215 41 91 17 176 33 189 36 l23 5 -6 -148 c-3 -81 -8 -258
-12 -393 l-7 -245 31 -12 c19 -6 34 -7 38 -2 3 5 14 4 27 -3 23 -12 30 -13
169 -16 81 -2 87 -3 90 -24 3 -18 7 -14 16 20 7 23 17 42 22 42 6 0 10 19 10
43 0 36 128 509 142 522 9 9 -19 -133 -51 -265 -34 -138 -35 -144 -21 -135 6
3 10 14 10 23 0 9 16 70 37 135 26 84 39 113 44 100 6 -14 8 -15 8 -2 1 15 35
135 49 172 6 16 17 10 72 -43 58 -54 145 -116 440 -309 46 -30 138 -95 204
-144 119 -89 168 -117 205 -117 36 0 131 41 131 56 0 8 14 29 31 47 17 17 40
49 51 70 30 60 140 513 153 632 3 33 12 83 20 110 7 28 23 95 35 150 24 109
78 321 115 455 13 47 29 104 35 128 6 24 16 45 23 47 7 2 104 14 217 25 241
25 266 34 312 117 35 63 31 75 -45 132 -75 57 -139 68 -285 49 l-113 -14 6 24
c15 62 22 113 15 117 -12 8 -26 -16 -45 -75 -18 -58 -31 -78 -41 -67 -3 3 8
47 25 98 17 51 27 89 22 83 -5 -5 -24 -51 -42 -102 -17 -51 -34 -91 -36 -88
-2 2 7 41 21 86 42 132 25 120 -21 -15 -15 -44 -29 -72 -31 -62 -2 9 -8 15
-13 12 -14 -9 -11 9 10 57 23 54 52 178 41 178 -4 0 -29 -48 -55 -107z m-1457
-60 c-26 -2 -71 -2 -100 0 -29 2 -8 3 47 3 55 0 79 -1 53 -3z m-28 -44 c36 -5
83 -12 105 -15 55 -8 57 -14 4 -14 -24 0 -86 -3 -138 -7 -86 -5 -94 -4 -88 11
4 10 7 22 7 27 0 12 29 11 110 -2z m130 -76 c29 -5 32 -7 15 -14 -11 -4 -37
-8 -58 -8 -42 -1 -42 -21 0 -21 25 0 25 -1 -13 -34 -48 -42 -97 -133 -107
-201 -4 -28 -44 -212 -52 -245 -28 -105 -47 -180 -51 -205 -12 -68 -15 -32 -9
100 11 253 14 299 24 402 5 56 7 121 4 143 -4 26 -2 40 6 41 6 1 16 3 21 4 6
1 27 4 48 5 34 2 32 3 -20 12 -39 7 -58 15 -58 25 0 12 18 13 108 8 59 -3 123
-8 142 -12z m150 -20 c19 -3 37 -7 40 -8 3 -1 21 -4 40 -9 43 -9 212 -68 208
-72 -2 -2 -42 8 -88 22 -94 28 -199 49 -256 53 -12 0 -24 7 -27 15 -6 15 2 15
83 -1z m25 -49 c17 -3 55 -15 85 -25 l55 -19 -50 4 c-27 3 -41 3 -30 0 11 -3
44 -12 73 -21 52 -16 53 -17 30 -30 -21 -12 -20 -13 24 -11 26 1 50 -1 54 -5
4 -4 -11 -7 -34 -7 -39 0 -72 -19 -35 -21 10 0 32 -3 48 -5 17 -2 49 -6 73
-10 44 -5 58 -23 20 -25 -13 0 -32 -3 -43 -5 -11 -3 -54 -8 -95 -11 -136 -10
-98 -23 64 -21 114 1 160 -2 169 -11 9 -10 9 -12 -3 -11 -38 6 -90 -1 -90 -11
0 -8 17 -9 54 -5 l54 7 34 -43 c66 -83 74 -148 32 -252 -58 -145 -163 -244
-324 -306 -103 -39 -350 -94 -350 -77 0 5 58 242 64 262 2 6 6 24 11 40 4 17
13 48 20 70 7 22 16 56 19 76 3 20 10 47 15 60 5 13 9 27 10 32 0 4 3 17 6 30
6 26 12 58 26 142 15 84 4 158 -29 196 -22 27 -23 31 -6 26 10 -3 33 -9 49
-13z m940 -266 c-4 -13 -16 -52 -27 -88 -11 -36 -33 -117 -50 -180 -27 -103
-36 -139 -52 -219 -3 -13 -14 -58 -25 -100 -11 -42 -22 -87 -25 -101 -16 -78
-39 -161 -55 -205 -19 -48 -60 -182 -65 -208 -1 -7 -5 -21 -9 -32 -3 -11 -8
-38 -12 -59 -3 -22 -8 -42 -10 -45 -5 -4 -60 31 -285 182 -25 17 -78 53 -118
81 l-74 50 69 23 c37 13 77 27 88 32 11 5 38 18 60 27 64 29 176 103 223 148
102 96 191 244 238 391 25 78 27 192 4 259 -6 20 -10 39 -7 42 5 6 84 21 115
23 20 1 22 -3 17 -21z m-1790 -145 c-4 -71 -8 -144 -10 -163 -2 -19 -3 -71 -4
-115 l-1 -81 -152 -27 c-212 -39 -210 -39 -201 -24 45 70 109 164 118 173 6 6
28 37 50 70 22 32 45 64 50 70 6 6 42 59 80 117 39 59 71 107 73 107 2 0 0
-57 -3 -127z m-735 -837 c0 -2 -8 -10 -17 -17 -16 -13 -17 -12 -4 4 13 16 21
21 21 13z m1420 -22 c0 -2 -9 0 -20 6 -11 6 -20 13 -20 16 0 2 9 0 20 -6 11
-6 20 -13 20 -16z"/>
<path d="M2401 2731 c-21 -14 4 -23 44 -15 19 3 35 10 35 15 0 11 -61 11 -79
0z"/>
<path d="M2328 2713 c7 -3 16 -2 19 1 4 3 -2 6 -13 5 -11 0 -14 -3 -6 -6z"/>
<path d="M2053 3223 c9 -2 23 -2 30 0 6 3 -1 5 -18 5 -16 0 -22 -2 -12 -5z"/>
<path d="M2161 3216 c2 -2 27 -6 54 -9 34 -4 42 -3 25 3 -25 8 -87 13 -79 6z"/>
<path d="M2315 3210 c11 -5 27 -9 35 -9 9 0 8 4 -5 9 -11 5 -27 9 -35 9 -9 0
-8 -4 5 -9z"/>
<path d="M410 2020 c-11 -8 -7 -9 15 -4 37 8 45 14 19 14 -10 0 -26 -5 -34
-10z"/>
<path d="M335 2010 c-3 -5 -2 -10 4 -10 5 0 13 5 16 10 3 6 2 10 -4 10 -5 0
-13 -4 -16 -10z"/>
<path d="M200 1770 c-19 -13 46 -13 75 0 16 7 11 9 -20 9 -22 0 -47 -4 -55 -9z"/>
<path d="M115 1750 c3 -5 12 -7 20 -3 21 7 19 13 -6 13 -11 0 -18 -4 -14 -10z"/>
<path d="M255 1564 c-9 -14 -15 -27 -13 -30 2 -2 12 10 22 26 21 37 15 40 -9
4z"/>
<path d="M530 1500 c-6 -11 -8 -20 -6 -20 3 0 10 9 16 20 6 11 8 20 6 20 -3 0
-10 -9 -16 -20z"/>
<path d="M1861 1474 c0 -11 3 -14 6 -6 3 7 2 16 -1 19 -3 4 -6 -2 -5 -13z"/>
<path d="M195 1469 c-4 -6 -5 -12 -2 -15 2 -3 7 2 10 11 7 17 1 20 -8 4z"/>
<path d="M308 1223 c-18 -22 -48 -70 -48 -78 0 -19 21 2 44 45 28 52 30 63 4
33z"/>
<path d="M1756 1212 c-11 -19 -23 -92 -15 -92 5 0 9 3 9 8 1 4 5 26 9 50 8 41
7 50 -3 34z"/>
<path d="M217 1063 c-4 -3 -7 -11 -7 -17 0 -6 5 -5 12 2 6 6 9 14 7 17 -3 3
-9 2 -12 -2z"/>
<path d="M1721 1044 c0 -11 3 -14 6 -6 3 7 2 16 -1 19 -3 4 -6 -2 -5 -13z"/>
</g>
</svg>
